<?xml version="1.0"?><svg version="1.2" baseProfile="tiny-ps" viewBox="0 0 129 129" xmlns="http://www.w3.org/2000/svg" xmlns:xlink="http://www.w3.org/1999/xlink"><title>ELETRATI</title><g><g fill="#ef7e1a" transform="matrix(.1 0 0 -.1 0 129)"><path d="M507 1264c-46-11-149-49-165-60-2-1 7-21 20-43l23-41 15 6c56 23 124 44 159 50l41 7V310h100v872l43-7c36-6 84-22 148-49l17-7 21 34c11 19 21 39 21 44 0 14-85 50-162 68l-63 15-80-1-80-1-58-14zm-243-112c-65-51-139-135-175-197-28-48-69-162-69-191v-14h98l6 35c9 45 64 151 105 202 17 21 54 56 81 77 28 21 50 41 50 45 0 3-11 23-23 44l-23 38-50-39zm692-4-26-43 22-14c13-8 51-42 84-76l62-61 35-75 35-74 13-63 12-63-6-77-5-77-24-66-25-67-47-66-47-66-54-41-54-41 22-39c12-21 26-39 31-39 16 0 111 81 154 132 58 70 86 119 116 208l25 75 7 76 6 75-12 74-12 74-28 67-27 68-46 63c-47 65-86 105-149 151l-37 27-25-42zM10 640v-50h320l23 38c13 20 27 43 31 50l7 12H10v-50zm15-147c24-129 143-302 259-379l28-18 19 25c10 13 22 33 25 43l6 19-18 10c-39 22-119 104-154 159l-37 57-19 60-19 61H18l7-37zm336-373-22-39 28-14c48-25 155-55 224-62l65-7 80 12c80 12 166 39 198 63l18 13-16 32c-9 17-20 33-25 36l-9 6-68-27-69-27H535l-71 27c-39 15-73 27-76 27-2 0-14-18-27-40z"/></g><g fill="#2a2a28" transform="matrix(.1 0 0 -.1 0 129)"><path d="M264 1152c-65-51-139-135-175-197-28-48-69-162-69-191v-14h98l6 35c9 45 64 151 105 202 17 21 54 56 81 77 28 21 50 41 50 45 0 3-11 23-23 44l-23 38-50-39zM10 640v-50h320l23 38c13 20 27 43 31 50l7 12H10v-50zm15-147c24-129 143-302 259-379l28-18 19 25c10 13 22 33 25 43l6 19-18 10c-39 22-119 104-154 159l-37 57-19 60-19 61H18l7-37zm336-373-22-39 28-14c48-25 155-55 224-62l65-7 80 12c80 12 166 39 198 63l18 13-16 32c-9 17-20 33-25 36l-9 6-68-27-69-27H535l-71 27c-39 15-73 27-76 27-2 0-14-18-27-40z"/></g><g fill="#2a2828" transform="matrix(.1 0 0 -.1 0 129)"><path d="m299 1063-14-18 18 14c16 13 21 21 13 21-2 0-10-8-17-17z"/></g></g></svg>
